<?xml version="1.0" standalone="no"?><!DOCTYPE svg PUBLIC "-//W3C//DTD SVG 1.1//EN" "http://www.w3.org/Graphics/SVG/1.1/DTD/svg11.dtd"><svg t="1731112776492" class="icon" viewBox="0 0 1024 1024" version="1.1" xmlns="http://www.w3.org/2000/svg" p-id="2765" xmlns:xlink="http://www.w3.org/1999/xlink" width="200" height="200"><path d="M907.238663 414.116103a24.94359 24.94359 0 0 1-17.670565-7.24677L624.719688 142.309744a24.786051 24.786051 0 0 1 0-35.18359 24.838564 24.838564 0 0 1 35.18359 0l264.874667 264.55959a24.786051 24.786051 0 0 1 0 35.183589 24.786051 24.786051 0 0 1-17.539282 7.24677zM243.319073 506.039795a24.94359 24.94359 0 0 1-17.670564-7.246769L72.993739 346.269538a24.94359 24.94359 0 0 1-3.938461-30.194871c96.886154-165.888 302.972718-233.340718 479.337026-156.75077 12.681846 5.48759 18.379487 20.11241 12.865641 32.768a24.891077 24.891077 0 0 1-32.820513 12.865641C381.165227 141.049436 209.894663 192.722051 122.093227 324.896821l138.660102 138.502564a24.786051 24.786051 0 0 1 0 35.183589 23.762051 23.762051 0 0 1-17.434256 7.456821z m460.747487 460.222359a25.022359 25.022359 0 0 1-17.670564-7.246769l-153.284923-153.232411a24.786051 24.786051 0 0 1 0-35.183589 24.838564 24.838564 0 0 1 35.18359 0l139.421538 139.237743a329.07159 329.07159 0 0 0 119.335385-407.735795 24.891077 24.891077 0 0 1 12.760615-32.899282 24.94359 24.94359 0 0 1 32.925538 12.760616 378.722462 378.722462 0 0 1-155.989333 480.886154 25.547487 25.547487 0 0 1-12.681846 3.413333z" fill="#5698FF" p-id="2766"></path><path d="M984.616304 21.057641a25.416205 25.416205 0 0 1 18.983384 7.273026c4.988718 4.962462 7.561846 11.894154 7.246769 18.957128-7.981949 140.261744-43.401846 271.701333-105.445743 390.642872-49.624615 95.074462-116.132103 182.298256-197.763282 259.282051-138.89641 130.940718-272.01641 186.262974-277.609026 188.521026a25.468718 25.468718 0 0 1-27.122872-5.48759l-251.195077-251.300103a24.812308 24.812308 0 0 1-5.513846-26.834051c2.284308-5.592615 56.871385-139.421538 187.497026-278.659282 76.773744-81.841231 163.997538-148.453744 259.177026-197.973333C711.995996 63.645538 843.750663 28.435692 984.616304 21.057641z m-413.696 315.076923a124.980513 124.980513 0 0 0-124.875488 124.875487 124.980513 124.980513 0 0 0 124.875488 124.875487A124.980513 124.980513 0 0 0 695.795791 461.010051a124.980513 124.980513 0 0 0-124.875487-124.901743z m0 49.939692a75.014564 75.014564 0 0 1 74.935794 74.935795 75.014564 75.014564 0 0 1-74.935794 74.909539 75.014564 75.014564 0 0 1-74.935795-74.909539 75.014564 75.014564 0 0 1 74.935795-74.935795zM259.65056 772.358564a124.980513 124.980513 0 0 1 0 176.600615c-24.234667 24.234667-69.001846 43.296821-133.198769 56.818872a771.413333 771.413333 0 0 1-86.278564 12.996923H38.072714a24.786051 24.786051 0 0 1-24.864821-26.965333c0.105026-1.627897 3.43959-40.566154 13.02318-86.252308 13.522051-64.196923 32.557949-108.964103 56.818872-133.198769a124.980513 124.980513 0 0 1 176.600615 0zM118.33856 807.647179c-16.672821 16.646564-31.954051 54.92841-43.086769 107.59877-3.938462 18.510769-6.774154 36.102564-8.664616 50.149743 13.96841-1.969231 31.560205-4.778667 50.176-8.638359 52.775385-11.132718 90.952205-26.413949 107.59877-43.060512a74.962051 74.962051 0 1 0-106.049641-106.049642z" fill="#5698FF" p-id="2767"></path></svg>